<svg xmlns="http://www.w3.org/2000/svg" xmlns:xlink="http://www.w3.org/1999/xlink" width="500" zoomAndPan="magnify" viewBox="0 0 375 374.999991" height="500" preserveAspectRatio="xMidYMid meet" version="1.0"><defs><g/></defs><path fill="rgb(12.159729%, 49.798584%, 58.428955%)" d="M 210.53125 204.316406 C 217.363281 227.589844 211.628906 253.765625 193.273438 272.117188 C 166.53125 298.871094 123.164062 298.863281 96.414062 272.117188 C 69.667969 245.378906 69.667969 202.023438 96.425781 175.277344 C 114.789062 156.925781 140.96875 151.179688 164.242188 158.019531 L 186.878906 135.363281 C 150.546875 118.066406 105.75 124.449219 75.675781 154.539062 C 37.476562 192.738281 37.476562 254.679688 75.675781 292.882812 C 113.871094 331.082031 175.816406 331.082031 214.035156 292.871094 C 244.109375 262.785156 250.484375 218.003906 233.199219 181.652344 Z M 210.53125 204.316406 " fill-opacity="1" fill-rule="nonzero"/><path fill="rgb(0%, 0%, 0%)" d="M 164.28125 157.972656 C 146.984375 121.621094 153.359375 76.824219 183.449219 46.75 C 221.65625 8.550781 283.582031 8.550781 321.796875 46.75 C 359.992188 84.953125 359.992188 146.898438 321.796875 185.09375 C 291.703125 215.183594 246.921875 221.558594 210.59375 204.265625 L 233.226562 181.605469 C 256.5 188.453125 282.683594 182.703125 301.042969 164.347656 C 327.789062 137.605469 327.789062 94.238281 301.042969 67.503906 C 274.296875 40.757812 230.933594 40.742188 204.1875 67.503906 C 185.835938 85.863281 180.082031 112.050781 186.929688 135.316406 Z M 215.871094 79.816406 C 195.75 99.941406 195.75 132.558594 215.871094 152.679688 C 236.003906 172.792969 268.628906 172.792969 288.726562 152.679688 C 308.859375 132.558594 308.859375 99.941406 288.742188 79.808594 C 268.628906 59.695312 236.003906 59.695312 215.871094 79.816406 Z M 215.871094 79.816406 " fill-opacity="1" fill-rule="nonzero"/><path fill="rgb(0%, 29.019165%, 67.83905%)" d="M 242.476562 217.734375 C 244.125 244.71875 234.644531 272.253906 214.027344 292.871094 C 175.808594 331.082031 113.863281 331.082031 75.667969 292.882812 C 37.46875 254.679688 37.46875 192.738281 75.667969 154.539062 C 96.285156 133.914062 123.816406 124.425781 150.800781 126.078125 C 151.824219 136.464844 154.449219 146.785156 158.730469 156.660156 C 136.921875 152.167969 113.347656 158.363281 96.425781 175.285156 C 69.667969 202.03125 69.667969 245.378906 96.414062 272.125 C 123.171875 298.871094 166.53125 298.878906 193.273438 272.125 C 210.195312 255.203125 216.382812 231.625 211.890625 209.816406 C 221.765625 214.097656 232.085938 216.714844 242.476562 217.734375 Z M 108.261719 187.417969 C 88.148438 207.542969 88.148438 240.167969 108.261719 260.273438 C 128.386719 280.40625 161.015625 280.40625 181.125 260.289062 C 201.246094 240.167969 201.246094 207.535156 181.140625 187.40625 C 161.015625 167.304688 128.386719 167.304688 108.261719 187.417969 Z M 108.261719 187.417969 " fill-opacity="1" fill-rule="nonzero"/><g fill="rgb(29.798889%, 32.159424%, 43.919373%)" fill-opacity="1"><g transform="translate(96.333334, 361.120875)"><g><path d="M 17.335938 0 C 25.394531 0 32.789062 -1.785156 32.789062 -14.175781 C 32.789062 -26.566406 25.292969 -28.25 17.234375 -28.25 L 5.203125 -28.25 C 4.386719 -28.25 4.078125 -27.738281 4.078125 -26.925781 L 4.078125 -1.324219 C 4.078125 -0.511719 4.285156 -0.101562 5.203125 0 Z M 16.523438 -27.636719 C 20.398438 -27.636719 23.710938 -22.128906 23.710938 -14.175781 C 23.710938 -6.222656 20.5 -0.613281 16.625 -0.613281 L 13.054688 -0.613281 L 13.054688 -27.636719 Z M 16.523438 -27.636719 "/></g></g></g><g fill="rgb(29.798889%, 32.159424%, 43.919373%)" fill-opacity="1"><g transform="translate(129.883381, 361.120875)"><g><path d="M 5.203125 -28.148438 C 4.386719 -28.148438 4.078125 -27.636719 4.078125 -26.820312 L 4.078125 -1.324219 C 4.078125 -0.511719 4.386719 0 5.203125 0 L 25.34375 0 C 26.058594 0 26.464844 -0.511719 26.769531 -1.324219 L 29.933594 -9.230469 C 30.035156 -9.484375 30.136719 -9.738281 29.882812 -9.945312 L 29.269531 -10.402344 C 29.167969 -10.503906 29.066406 -10.503906 28.964844 -10.503906 C 28.8125 -10.503906 28.65625 -10.402344 28.453125 -10.300781 L 14.789062 -0.714844 L 12.800781 -0.714844 L 12.800781 -14.023438 L 23.710938 -13.769531 L 23.710938 -14.992188 L 12.800781 -14.738281 L 12.800781 -27.433594 L 14.789062 -27.433594 L 23.558594 -20.039062 C 24.273438 -19.480469 25.140625 -18.816406 25.851562 -18.816406 L 26.160156 -18.816406 C 26.976562 -18.816406 27.28125 -19.324219 27.28125 -20.140625 L 27.28125 -26.820312 C 27.28125 -27.636719 26.976562 -28.148438 26.160156 -28.148438 Z M 5.203125 -28.148438 "/></g></g></g><g fill="rgb(29.798889%, 32.159424%, 43.919373%)" fill-opacity="1"><g transform="translate(159.711282, 361.120875)"><g><path d="M 27.230469 -19.019531 L 27.382812 -19.222656 C 27.585938 -25.851562 24.171875 -28.148438 12.902344 -28.148438 L 5.203125 -28.148438 C 4.386719 -28.148438 4.078125 -27.636719 4.078125 -26.820312 L 4.078125 -1.324219 C 4.078125 -0.511719 4.386719 0 5.203125 0 L 14.226562 0 C 25.851562 0 29.269531 -1.785156 29.269531 -8.210938 C 29.269531 -13.664062 24.527344 -14.992188 17.386719 -14.992188 Z M 12.59375 -14.328125 C 18.101562 -14.328125 20.703125 -12.59375 20.703125 -7.496094 C 20.703125 -3.46875 18.101562 -0.714844 13.207031 -0.714844 L 12.289062 -0.714844 L 12.289062 -14.328125 Z M 12.902344 -27.433594 C 17.542969 -27.433594 20.296875 -26.109375 20.296875 -21.007812 C 20.296875 -18.613281 18.101562 -15.042969 12.59375 -15.042969 L 12.289062 -15.042969 L 12.289062 -27.433594 Z M 12.902344 -27.433594 "/></g></g></g><g fill="rgb(29.798889%, 32.159424%, 43.919373%)" fill-opacity="1"><g transform="translate(190.253021, 361.120875)"><g><path d="M 27.230469 -19.019531 L 27.382812 -19.222656 C 27.585938 -25.851562 24.171875 -28.148438 12.902344 -28.148438 L 5.203125 -28.148438 C 4.386719 -28.148438 4.078125 -27.636719 4.078125 -26.820312 L 4.078125 -1.324219 C 4.078125 -0.511719 4.386719 0 5.203125 0 L 14.226562 0 C 25.851562 0 29.269531 -1.785156 29.269531 -8.210938 C 29.269531 -13.664062 24.527344 -14.992188 17.386719 -14.992188 Z M 12.59375 -14.328125 C 18.101562 -14.328125 20.703125 -12.59375 20.703125 -7.496094 C 20.703125 -3.46875 18.101562 -0.714844 13.207031 -0.714844 L 12.289062 -0.714844 L 12.289062 -14.328125 Z M 12.902344 -27.433594 C 17.542969 -27.433594 20.296875 -26.109375 20.296875 -21.007812 C 20.296875 -18.613281 18.101562 -15.042969 12.59375 -15.042969 L 12.289062 -15.042969 L 12.289062 -27.433594 Z M 12.902344 -27.433594 "/></g></g></g><g fill="rgb(29.798889%, 32.159424%, 43.919373%)" fill-opacity="1"><g transform="translate(220.79476, 361.120875)"><g><path d="M 27.28125 -8.003906 C 27.28125 -8.820312 26.976562 -9.332031 26.160156 -9.332031 L 25.851562 -9.332031 C 25.140625 -9.332031 24.273438 -8.667969 23.558594 -8.109375 L 14.789062 -0.714844 L 12.800781 -0.714844 L 12.800781 -26.820312 C 12.800781 -27.636719 12.492188 -28.148438 11.675781 -28.148438 L 5.203125 -28.148438 C 4.386719 -28.148438 4.078125 -27.636719 4.078125 -26.820312 L 4.078125 -1.324219 C 4.078125 -0.511719 4.386719 0 5.203125 0 L 26.160156 0 C 26.976562 0 27.28125 -0.511719 27.28125 -1.324219 Z M 27.28125 -8.003906 "/></g></g></g><g fill="rgb(29.798889%, 32.159424%, 43.919373%)" fill-opacity="1"><g transform="translate(247.81831, 361.120875)"><g><path d="M 5.203125 -28.148438 C 4.386719 -28.148438 4.078125 -27.636719 4.078125 -26.820312 L 4.078125 -1.324219 C 4.078125 -0.511719 4.386719 0 5.203125 0 L 25.34375 0 C 26.058594 0 26.464844 -0.511719 26.769531 -1.324219 L 29.933594 -9.230469 C 30.035156 -9.484375 30.136719 -9.738281 29.882812 -9.945312 L 29.269531 -10.402344 C 29.167969 -10.503906 29.066406 -10.503906 28.964844 -10.503906 C 28.8125 -10.503906 28.65625 -10.402344 28.453125 -10.300781 L 14.789062 -0.714844 L 12.800781 -0.714844 L 12.800781 -14.023438 L 23.710938 -13.769531 L 23.710938 -14.992188 L 12.800781 -14.738281 L 12.800781 -27.433594 L 14.789062 -27.433594 L 23.558594 -20.039062 C 24.273438 -19.480469 25.140625 -18.816406 25.851562 -18.816406 L 26.160156 -18.816406 C 26.976562 -18.816406 27.28125 -19.324219 27.28125 -20.140625 L 27.28125 -26.820312 C 27.28125 -27.636719 26.976562 -28.148438 26.160156 -28.148438 Z M 5.203125 -28.148438 "/></g></g></g></svg>