<svg xmlns="http://www.w3.org/2000/svg" xmlns:xlink="http://www.w3.org/1999/xlink" width="60" zoomAndPan="magnify" viewBox="0 0 45 44.999999" height="60" preserveAspectRatio="xMidYMid meet" version="1.0"><path fill="rgb(0%, 0%, 0%)" d="M 37.953125 22.503906 L 26.507812 35.613281 L 23.4375 32.097656 L 31.816406 22.503906 L 13.722656 1.777344 C 14.898438 1.277344 16.125 0.878906 17.394531 0.585938 L 17.394531 0.582031 C 17.472656 0.566406 17.550781 0.546875 17.625 0.53125 C 17.636719 0.527344 17.648438 0.527344 17.660156 0.523438 C 17.757812 0.503906 17.855469 0.480469 17.957031 0.460938 C 17.960938 0.460938 17.964844 0.460938 17.96875 0.457031 C 19.433594 0.160156 20.949219 0 22.5 0 C 34.640625 0 44.539062 9.621094 44.984375 21.652344 C 44.984375 21.652344 37.953125 4.550781 22.5 4.550781 C 22.425781 4.550781 22.355469 4.550781 22.28125 4.554688 L 37.953125 22.503906 " fill-opacity="1" fill-rule="nonzero"/><path fill="rgb(0%, 0%, 0%)" d="M 29.601562 39.160156 C 40.125 35.171875 44.984375 23.351562 44.984375 23.351562 C 44.671875 31.78125 39.722656 39.023438 32.613281 42.605469 L 29.601562 39.160156 " fill-opacity="1" fill-rule="nonzero"/><path fill="rgb(13.729858%, 23.919678%, 100%)" d="M 0.015625 23.351562 C 0.015625 23.351562 7.046875 40.453125 22.5 40.453125 C 22.574219 40.453125 22.644531 40.453125 22.71875 40.453125 L 7.046875 22.503906 L 18.492188 9.390625 L 21.5625 12.90625 L 13.183594 22.503906 L 31.277344 43.226562 C 30.101562 43.726562 28.875 44.125 27.605469 44.421875 C 27.527344 44.4375 27.449219 44.457031 27.375 44.472656 C 27.363281 44.476562 27.351562 44.476562 27.339844 44.480469 C 27.242188 44.503906 27.144531 44.523438 27.042969 44.542969 C 27.039062 44.542969 27.035156 44.546875 27.027344 44.546875 C 25.566406 44.84375 24.050781 45.003906 22.5 45.003906 C 10.359375 45.003906 0.460938 35.386719 0.015625 23.351562 " fill-opacity="1" fill-rule="nonzero"/><path fill="rgb(13.729858%, 23.919678%, 100%)" d="M 15.398438 5.84375 C 4.875 9.832031 0.015625 21.652344 0.015625 21.652344 C 0.328125 13.222656 5.277344 5.980469 12.386719 2.398438 L 15.398438 5.84375 " fill-opacity="1" fill-rule="nonzero"/></svg>