<svg xmlns="http://www.w3.org/2000/svg" xmlns:xlink="http://www.w3.org/1999/xlink" width="500" zoomAndPan="magnify" viewBox="0 0 375 374.999991" height="500" preserveAspectRatio="xMidYMid meet" version="1.0"><defs><g/><clipPath id="id1"><path d="M 165 122 L 242.523438 122 L 242.523438 220 L 165 220 Z M 165 122 " clip-rule="nonzero"/></clipPath><clipPath id="id2"><path d="M 132.335938 108 L 210 108 L 210 206 L 132.335938 206 Z M 132.335938 108 " clip-rule="nonzero"/></clipPath></defs><g clip-path="url(#id1)"><path fill="rgb(36.859131%, 9.01947%, 92.158508%)" d="M 242.527344 194.015625 L 242.527344 128.558594 C 242.527344 123.515625 236.925781 120.507812 232.746094 123.304688 L 209.773438 138.667969 L 225.300781 149.050781 L 225.300781 193.171875 C 225.300781 199.894531 217.832031 203.902344 212.257812 200.175781 L 180.558594 178.976562 L 165.027344 189.363281 L 203.398438 215.023438 C 220.125 226.207031 242.527344 214.179688 242.527344 194.015625 Z M 242.527344 194.015625 " fill-opacity="1" fill-rule="nonzero"/></g><g clip-path="url(#id2)"><path fill="rgb(21.958923%, 71.369934%, 100%)" d="M 149.5 178.976562 L 149.5 134.855469 C 149.5 128.136719 156.96875 124.125 162.542969 127.851562 L 194.246094 149.050781 L 209.773438 138.667969 L 171.402344 113.007812 C 154.675781 101.824219 132.273438 113.847656 132.273438 134.011719 L 132.273438 199.472656 C 132.273438 204.511719 137.871094 207.519531 142.054688 204.722656 L 165.027344 189.359375 Z M 149.5 178.976562 " fill-opacity="1" fill-rule="nonzero"/></g><path fill="rgb(0%, 0%, 0%)" d="M 180.558594 178.976562 L 225.300781 149.054688 L 209.773438 138.667969 L 194.242188 149.050781 L 194.242188 149.054688 L 149.5 178.976562 L 165.027344 189.363281 Z M 180.558594 178.976562 " fill-opacity="1" fill-rule="nonzero"/><g fill="rgb(0%, 0%, 0%)" fill-opacity="1"><g transform="translate(131.921824, 240.287211)"><g><path d="M 2.699219 -0.78125 C 2.699219 -0.300781 2.878906 0 3.359375 0 L 11.460938 0 C 18.75 0 22.710938 -3.238281 22.710938 -10.53125 C 22.710938 -17.820312 18.75 -21 11.460938 -21 L 3.359375 -21 C 2.878906 -21 2.699219 -20.699219 2.699219 -20.21875 Z M 8.128906 -20.578125 L 10.5 -20.578125 C 13.980469 -20.578125 17.011719 -15.480469 17.011719 -10.53125 C 17.011719 -5.578125 13.980469 -0.421875 10.5 -0.421875 L 8.128906 -0.421875 Z M 8.128906 -20.578125 "/></g></g></g><g fill="rgb(0%, 0%, 0%)" fill-opacity="1"><g transform="translate(155.5318, 240.287211)"><g><path d="M 3.058594 -16.558594 C 2.578125 -16.558594 2.398438 -16.261719 2.398438 -15.78125 L 2.398438 -0.78125 C 2.398438 -0.300781 2.578125 0 3.058594 0 L 14.910156 0 C 15.328125 0 15.570312 -0.300781 15.75 -0.78125 L 17.609375 -5.429688 C 17.671875 -5.578125 17.730469 -5.730469 17.578125 -5.851562 L 17.21875 -6.121094 C 17.160156 -6.179688 17.101562 -6.179688 17.039062 -6.179688 C 16.949219 -6.179688 16.859375 -6.121094 16.738281 -6.058594 L 8.699219 -0.421875 L 7.53125 -0.421875 L 7.53125 -8.25 L 13.949219 -8.101562 L 13.949219 -8.820312 L 7.53125 -8.671875 L 7.53125 -16.140625 L 8.699219 -16.140625 L 13.859375 -11.789062 C 14.28125 -11.460938 14.789062 -11.070312 15.210938 -11.070312 L 15.390625 -11.070312 C 15.871094 -11.070312 16.050781 -11.371094 16.050781 -11.851562 L 16.050781 -15.78125 C 16.050781 -16.261719 15.871094 -16.558594 15.390625 -16.558594 Z M 3.058594 -16.558594 "/></g></g></g><g fill="rgb(0%, 0%, 0%)" fill-opacity="1"><g transform="translate(173.081785, 240.287211)"><g><path d="M 16.019531 -11.191406 L 16.109375 -11.308594 C 16.230469 -15.210938 14.21875 -16.558594 7.589844 -16.558594 L 3.058594 -16.558594 C 2.578125 -16.558594 2.398438 -16.261719 2.398438 -15.78125 L 2.398438 -0.78125 C 2.398438 -0.300781 2.578125 0 3.058594 0 L 8.371094 0 C 15.210938 0 17.21875 -1.050781 17.21875 -4.828125 C 17.21875 -8.039062 14.429688 -8.820312 10.230469 -8.820312 Z M 7.410156 -8.429688 C 10.648438 -8.429688 12.179688 -7.410156 12.179688 -4.410156 C 12.179688 -2.039062 10.648438 -0.421875 7.769531 -0.421875 L 7.230469 -0.421875 L 7.230469 -8.429688 Z M 7.589844 -16.140625 C 10.320312 -16.140625 11.941406 -15.359375 11.941406 -12.359375 C 11.941406 -10.949219 10.648438 -8.851562 7.410156 -8.851562 L 7.230469 -8.851562 L 7.230469 -16.140625 Z M 7.589844 -16.140625 "/></g></g></g><g fill="rgb(0%, 0%, 0%)" fill-opacity="1"><g transform="translate(191.051772, 240.287211)"><g><path d="M 16.019531 -11.191406 L 16.109375 -11.308594 C 16.230469 -15.210938 14.21875 -16.558594 7.589844 -16.558594 L 3.058594 -16.558594 C 2.578125 -16.558594 2.398438 -16.261719 2.398438 -15.78125 L 2.398438 -0.78125 C 2.398438 -0.300781 2.578125 0 3.058594 0 L 8.371094 0 C 15.210938 0 17.21875 -1.050781 17.21875 -4.828125 C 17.21875 -8.039062 14.429688 -8.820312 10.230469 -8.820312 Z M 7.410156 -8.429688 C 10.648438 -8.429688 12.179688 -7.410156 12.179688 -4.410156 C 12.179688 -2.039062 10.648438 -0.421875 7.769531 -0.421875 L 7.230469 -0.421875 L 7.230469 -8.429688 Z M 7.589844 -16.140625 C 10.320312 -16.140625 11.941406 -15.359375 11.941406 -12.359375 C 11.941406 -10.949219 10.648438 -8.851562 7.410156 -8.851562 L 7.230469 -8.851562 L 7.230469 -16.140625 Z M 7.589844 -16.140625 "/></g></g></g><g fill="rgb(0%, 0%, 0%)" fill-opacity="1"><g transform="translate(209.021753, 240.287211)"><g><path d="M 16.050781 -4.710938 C 16.050781 -5.191406 15.871094 -5.488281 15.390625 -5.488281 L 15.210938 -5.488281 C 14.789062 -5.488281 14.28125 -5.101562 13.859375 -4.769531 L 8.699219 -0.421875 L 7.53125 -0.421875 L 7.53125 -15.78125 C 7.53125 -16.261719 7.351562 -16.558594 6.871094 -16.558594 L 3.058594 -16.558594 C 2.578125 -16.558594 2.398438 -16.261719 2.398438 -15.78125 L 2.398438 -0.78125 C 2.398438 -0.300781 2.578125 0 3.058594 0 L 15.390625 0 C 15.871094 0 16.050781 -0.300781 16.050781 -0.78125 Z M 16.050781 -4.710938 "/></g></g></g><g fill="rgb(0%, 0%, 0%)" fill-opacity="1"><g transform="translate(224.921738, 240.287211)"><g><path d="M 3.058594 -16.558594 C 2.578125 -16.558594 2.398438 -16.261719 2.398438 -15.78125 L 2.398438 -0.78125 C 2.398438 -0.300781 2.578125 0 3.058594 0 L 14.910156 0 C 15.328125 0 15.570312 -0.300781 15.75 -0.78125 L 17.609375 -5.429688 C 17.671875 -5.578125 17.730469 -5.730469 17.578125 -5.851562 L 17.21875 -6.121094 C 17.160156 -6.179688 17.101562 -6.179688 17.039062 -6.179688 C 16.949219 -6.179688 16.859375 -6.121094 16.738281 -6.058594 L 8.699219 -0.421875 L 7.53125 -0.421875 L 7.53125 -8.25 L 13.949219 -8.101562 L 13.949219 -8.820312 L 7.53125 -8.671875 L 7.53125 -16.140625 L 8.699219 -16.140625 L 13.859375 -11.789062 C 14.28125 -11.460938 14.789062 -11.070312 15.210938 -11.070312 L 15.390625 -11.070312 C 15.871094 -11.070312 16.050781 -11.371094 16.050781 -11.851562 L 16.050781 -15.78125 C 16.050781 -16.261719 15.871094 -16.558594 15.390625 -16.558594 Z M 3.058594 -16.558594 "/></g></g></g></svg>